<?xml version="1.0"?>
<svg xmlns="http://www.w3.org/2000/svg" width="50" height="50" viewBox="0 0 50 50">
    <path style="text-indent:0;text-align:start;line-height:normal;text-transform:none;block-progression:tb;-inkscape-font-specification:Bitstream Vera Sans" d="M 31 1.3125 L 30.1875 2.40625 C 29.9765 2.69825 25 9.61925 25 13.78125 C 25 17.21125 27.691 20 31 20 C 34.309 20 37 17.21125 37 13.78125 C 37 9.61925 32.0235 2.69825 31.8125 2.40625 L 31 1.3125 z M 19.5 11.90625 A 1.0001 1.0001 0 0 0 19.375 11.9375 A 1.0001 1.0001 0 0 0 18.8125 12.28125 C 18.801394 12.292205 18.791946 12.300919 18.78125 12.3125 C 17.427135 13.545812 15.30328 14 14 14 C 12.751304 14 10.763698 13.559697 9.40625 12.4375 A 1.0001 1.0001 0 0 0 8.40625 11.96875 A 1.0001 1.0001 0 0 0 8.3125 12 A 1.0001 1.0001 0 0 0 7.9375 12.15625 A 1.0001 1.0001 0 0 0 7.875 12.1875 A 1.0001 1.0001 0 0 0 7.875 12.21875 A 1.0001 1.0001 0 0 0 7.8125 12.25 A 1.0001 1.0001 0 0 0 7.8125 12.28125 A 1.0001 1.0001 0 0 0 7.6875 12.40625 C 6.3307716 13.573266 4.2717899 14 3 14 A 1.0001 1.0001 0 1 0 3 16 C 4.5444336 16 6.7036338 15.570147 8.5 14.25 C 10.29695 15.569994 12.456328 16 14 16 C 15.540017 16 17.706606 15.592425 19.5 14.28125 C 20.822719 15.235053 22.427068 15.727348 23.8125 15.90625 C 23.6275 15.24625 23.505 14.56375 23.5 13.84375 C 22.498427 13.645375 21.415907 13.247281 20.53125 12.5625 A 1.0001 1.0001 0 0 0 19.5 11.90625 z M 41.34375 12 A 1.0001 1.0001 0 0 0 40.75 12.34375 C 40.095525 12.930047 39.307653 13.328724 38.5 13.59375 C 38.502 13.65775 38.5 13.71725 38.5 13.78125 C 38.5 14.45625 38.409 15.09475 38.25 15.71875 C 39.35544 15.45965 40.497653 14.97768 41.5 14.25 C 43.29695 15.569994 45.456328 16 47 16 A 1.0001 1.0001 0 1 0 47 14 C 45.687364 14 43.541091 13.537442 42.1875 12.28125 A 1.0001 1.0001 0 0 0 41.90625 12.09375 C 41.885358 12.084331 41.865131 12.070411 41.84375 12.0625 A 1.0001 1.0001 0 0 0 41.34375 12 z M 19.5625 22.90625 A 1.0001 1.0001 0 0 0 19.375 22.9375 A 1.0001 1.0001 0 0 0 19.09375 23.0625 A 1.0001 1.0001 0 0 0 19.03125 23.09375 A 1.0001 1.0001 0 0 0 18.6875 23.40625 C 17.330771 24.573266 15.27179 25 14 25 C 12.739802 25 10.701578 24.583141 9.34375 23.4375 A 1.0001 1.0001 0 0 0 9.1875 23.28125 A 1.0001 1.0001 0 0 0 9.15625 23.21875 A 1.0001 1.0001 0 0 0 8.9375 23.09375 A 1.0001 1.0001 0 0 0 8.90625 23.0625 A 1.0001 1.0001 0 0 0 8.84375 23.0625 A 1.0001 1.0001 0 0 0 8.8125 23.03125 A 1.0001 1.0001 0 0 0 8.75 23.03125 A 1.0001 1.0001 0 0 0 8.71875 23 A 1.0001 1.0001 0 0 0 8.65625 23 A 1.0001 1.0001 0 0 0 8.625 23 A 1.0001 1.0001 0 0 0 8.3125 23 A 1.0001 1.0001 0 0 0 7.9375 23.15625 A 1.0001 1.0001 0 0 0 7.875 23.1875 A 1.0001 1.0001 0 0 0 7.875 23.21875 A 1.0001 1.0001 0 0 0 7.8125 23.25 A 1.0001 1.0001 0 0 0 7.8125 23.28125 A 1.0001 1.0001 0 0 0 7.6875 23.40625 C 6.3307716 24.573266 4.2717899 25 3 25 A 1.0001 1.0001 0 1 0 3 27 C 4.5444336 27 6.7036338 26.570147 8.5 25.25 C 10.29695 26.569994 12.456328 27 14 27 C 15.544433 27 17.703634 26.570147 19.5 25.25 C 21.29695 26.569994 23.456328 27 25 27 C 26.543672 27 28.703413 26.570219 30.5 25.25 C 32.29695 26.569994 34.456328 27 36 27 C 37.543672 27 39.703413 26.570219 41.5 25.25 C 43.29695 26.569994 45.456328 27 47 27 A 1.0001 1.0001 0 1 0 47 25 C 45.787503 25 43.853303 24.612786 42.5 23.5625 A 1.0001 1.0001 0 0 0 41.375 22.9375 A 1.0001 1.0001 0 0 0 41.03125 23.09375 A 1.0001 1.0001 0 0 0 40.6875 23.40625 C 39.330831 24.573148 37.270686 25 36 25 C 34.787503 25 32.853303 24.612786 31.5 23.5625 A 1.0001 1.0001 0 0 0 30.09375 23.0625 A 1.0001 1.0001 0 0 0 30.0625 23.09375 A 1.0001 1.0001 0 0 0 30.03125 23.09375 A 1.0001 1.0001 0 0 0 29.78125 23.3125 C 29.770345 23.322432 29.761004 23.333919 29.75 23.34375 A 1.0001 1.0001 0 0 0 29.6875 23.40625 C 28.330831 24.573148 26.270686 25 25 25 C 23.787503 25 21.853303 24.612786 20.5 23.5625 A 1.0001 1.0001 0 0 0 20.5 23.53125 A 1.0001 1.0001 0 0 0 19.5625 22.90625 z M 19 29.3125 L 18.1875 30.40625 C 17.9765 30.69825 13 37.62025 13 41.78125 C 13 45.21125 15.691 48 19 48 C 22.309 48 25 45.21125 25 41.78125 C 25 37.62025 20.0235 30.69825 19.8125 30.40625 L 19 29.3125 z M 41.5625 33.90625 A 1.0001 1.0001 0 0 0 41.375 33.9375 A 1.0001 1.0001 0 0 0 41.09375 34.0625 A 1.0001 1.0001 0 0 0 41.03125 34.09375 A 1.0001 1.0001 0 0 0 40.6875 34.40625 C 39.330831 35.573148 37.270686 36 36 36 C 34.697852 36 32.573989 35.546096 31.21875 34.3125 C 31.208054 34.300919 31.198605 34.292205 31.1875 34.28125 A 1.0001 1.0001 0 0 0 30.90625 34.09375 C 30.885358 34.084345 30.865131 34.070397 30.84375 34.0625 A 1.0001 1.0001 0 0 0 30.34375 34 A 1.0001 1.0001 0 0 0 29.8125 34.28125 C 29.801482 34.291469 29.792357 34.302386 29.78125 34.3125 A 1.0001 1.0001 0 0 0 29.6875 34.40625 C 28.310601 35.593695 26.317504 36 25 36 C 24.961 36 24.915 36.001 24.875 36 C 25.18 36.651 25.4475 37.30375 25.6875 37.96875 C 27.1885 37.850684 29.040735 37.369276 30.53125 36.28125 C 32.32142 37.580999 34.466317 38 36 38 C 37.543672 38 39.703413 37.570219 41.5 36.25 C 43.29695 37.569994 45.456328 38 47 38 A 1.0001 1.0001 0 1 0 47 36 C 45.787503 36 43.853303 35.612786 42.5 34.5625 A 1.0001 1.0001 0 0 0 42.5 34.53125 A 1.0001 1.0001 0 0 0 41.5625 33.90625 z M 8.40625 33.96875 A 1.0001 1.0001 0 0 0 8.3125 34 A 1.0001 1.0001 0 0 0 7.8125 34.28125 C 7.8013683 34.292231 7.7919748 34.300891 7.78125 34.3125 C 6.427135 35.545812 4.3032799 36 3 36 A 1.0001 1.0001 0 1 0 3 38 C 4.5400176 38 6.7066056 37.592425 8.5 36.28125 C 9.6811343 37.134051 11.072917 37.622083 12.34375 37.84375 C 12.58075 37.20475 12.86125 36.5645 13.15625 35.9375 C 11.951595 35.79655 10.504688 35.348135 9.40625 34.4375 A 1.0001 1.0001 0 0 0 8.40625 33.96875 z"/>
</svg>
